<svg width="538" height="766" viewBox="0 0 538 766" xmlns="http://www.w3.org/2000/svg" xmlns:xlink="http://www.w3.org/1999/xlink"><title>Artboard</title><defs><linearGradient x1="50%" y1="-82.685%" x2="65.292%" y2="109.597%" id="a"><stop stop-color="#3023AE" offset="0%"/><stop stop-color="#5836B9" offset="26.271%"/><stop stop-color="#5E39BA" offset="29.97%"/><stop stop-color="#C96DD8" offset="100%"/></linearGradient><ellipse id="b" cx="35.279" cy="28.406" rx="35.279" ry="28.406"/><ellipse id="d" cx="11.97" cy="11.363" rx="11.97" ry="11.363"/><path id="f" d="M0 .987h18.899v12.637H0z"/><path d="M0 1.26C0 .563.565 0 1.258 0h23.943c.695 0 1.258.563 1.258 1.26V5.68a5.676 5.676 0 0 1-5.676 5.682H5.676A5.683 5.683 0 0 1 0 5.68V1.26z" id="h"/></defs><g fill="none" fill-rule="evenodd"><g transform="translate(52 36.82)"><rect fill="url(#a)" x="20" width="393" height="684.837" rx="12"/><g transform="translate(243.625 670.843)" fill="#FFF"><ellipse cx="2.15" cy="2.159" rx="2.15" ry="2.159"/><ellipse opacity=".438" cx="15.052" cy="2.159" rx="2.15" ry="2.159"/><ellipse opacity=".438" cx="27.954" cy="2.159" rx="2.15" ry="2.159"/><path d="M40.856 4.318c1.188 0 2.15-.967 2.15-2.159C43.006.967 42.044 0 40.856 0s-2.15.967-2.15 2.16c0 1.191.962 2.158 2.15 2.158z" opacity=".438"/></g><path fill="#F0B088" d="M0 672.814h433.217v25.909H0z"/><path fill="#EAA275" d="M0 670.423h433.217v20.26H0z"/><g transform="translate(202.625 633)"><g transform="translate(2.52 15.348)"><path fill="#645145" d="M52.918 18.904l-5.053 10.11H7.573L2.52 18.904z"/><path d="M24.384 16.123s.795-2.542.795-5.14c0-2.6-4.306-7.658-12.33-6.891-8.024.767 3.318-3.415 3.318-3.415S23.046.739 27.72 6.95c.167.222 4.674-3.97 10.499-4.212 5.825-.242-1.331-.866 1.048-.993 3.006-.16 4.41 2.683 0 3.349-4.41.666-5.619 1.71-7.124 2.692-5.29 3.452-3.412 9.782-3.412 9.782" fill="#C2825A"/><rect fill="#7A6D65" y="15.113" width="55.438" height="3.791" rx="1.896"/><path d="M7.56 27.751h10.08v2.528H8.815c-.694 0-1.256-.561-1.256-1.264v-1.264zM37.799 27.751h10.08v1.264c0 .698-.572 1.264-1.257 1.264h-8.823V27.75z" fill="#584336"/></g><ellipse fill="#09B868" cx="7.123" cy="17.291" rx="5.376" ry="5.398"/><ellipse fill="#09B868" cx="13.574" cy="19.45" rx="5.376" ry="5.398"/><ellipse fill="#00CD6F" cx="16.799" cy="9.734" rx="9.676" ry="9.716"/><ellipse fill="#00CD6F" cx="8.198" cy="10.814" rx="7.526" ry="7.557"/><ellipse fill="#09B868" cx="42.066" cy="16.211" rx="5.376" ry="5.398"/><ellipse fill="#09B868" cx="37.227" cy="11.893" rx="5.376" ry="5.398"/><ellipse fill="#09B868" cx="48.517" cy="18.37" rx="5.376" ry="5.398"/><ellipse fill="#00CD6F" cx="49.592" cy="11.893" rx="6.451" ry="6.477"/><ellipse fill="#00CD6F" cx="42.603" cy="9.734" rx="4.301" ry="4.318"/></g><rect fill="#FFF" x="143.635" y="668.025" width="22.679" height="7.575" rx="2.52"/><g transform="translate(306 513)"><path d="M9.82 72.928c0 16.052 12.974 29.065 28.979 29.065 16.004 0 28.979-13.013 28.979-29.065V33.782H9.82v39.146z" fill="#CF8766"/><g transform="translate(3.52 106.05)"><mask id="c" fill="#fff"><use xlink:href="#b"/></mask><use fill="#FF7BEC" xlink:href="#b"/><g transform="translate(22.68 -10.1)" mask="url(#c)"><mask id="e" fill="#fff"><use xlink:href="#d"/></mask><use fill="#CF8766" xlink:href="#d"/><path d="M15.406 12.384s3.462 1.807 9.704 1.262c6.243-.545-1.084-2.018-1.084-2.018l-4.232-1.06-4.388 1.816z" fill="#BE7250" mask="url(#e)"/></g></g><g transform="translate(46.358 59.337)"><ellipse fill="#353332" cx="3.15" cy="3.156" rx="3.15" ry="3.156"/><path d="M4.163.88S5.926 2.29 6.946.613" stroke="#353332" stroke-width="1.26"/><ellipse fill="#353332" cx="6.93" cy=".631" rx=".63" ry=".631"/></g><g transform="matrix(-1 0 0 1 31.239 59.337)"><ellipse fill="#353332" cx="3.15" cy="3.156" rx="3.15" ry="3.156"/><path d="M4.163.88S5.926 2.29 6.946.613" stroke="#353332" stroke-width="1.26"/><ellipse fill="#353332" cx="6.93" cy=".631" rx=".63" ry=".631"/></g><g transform="translate(28.719 94.688)"><mask id="g" fill="#fff"><use xlink:href="#f"/></mask><use fill="#CF8766" xlink:href="#f"/><path d="M18.976 6.014s-6.842 2.321-11.144.76c-4.302-1.56 7.6 11.202 12.521 10.56 4.92-.644-1.377-11.32-1.377-11.32z" fill="#BE7250" mask="url(#g)"/></g><g transform="translate(26.2 82.063)"><mask id="i" fill="#fff"><use xlink:href="#h"/></mask><use fill="#353332" xlink:href="#h"/><rect fill="#FFF" mask="url(#i)" y="-1.262" width="26.459" height="5.05" rx=".63"/><rect fill="#FFACB1" mask="url(#i)" x="5.04" y="8.838" width="15.119" height="6.313" rx="3.156"/></g><rect fill="#B96B47" x="18.639" y="68.175" width="11.34" height="5.05" rx="2.52"/><rect fill="#B96B47" x="47.618" y="68.175" width="11.34" height="5.05" rx="2.52"/><g transform="rotate(-12 263.123 -66.89)"><path d="M1.194 2.599S2.96.75 5.804.37c.74-.099 3.804-.723 6.742 2.128" stroke="#353332" stroke-width="2.52"/><ellipse fill="#353332" cx="12.6" cy="2.525" rx="1.26" ry="1.262"/><ellipse fill="#353332" cx="1.26" cy="2.525" rx="1.26" ry="1.262"/></g><g transform="scale(-1 1) rotate(-12 224.324 302.254)"><path d="M1.194 2.599S2.96.75 5.804.37c.74-.099 3.804-.723 6.742 2.128" stroke="#353332" stroke-width="2.52"/><ellipse fill="#353332" cx="12.6" cy="2.525" rx="1.26" ry="1.262"/><ellipse fill="#353332" cx="1.26" cy="2.525" rx="1.26" ry="1.262"/></g><ellipse fill="#CF8766" transform="rotate(-22 11.313 57.744)" cx="11.313" cy="57.744" rx="7.56" ry="8.838"/><ellipse fill="#FFF350" cx="10.45" cy="65.019" rx="1.89" ry="1.894"/><g transform="translate(6.04 53.025)"><path d="M.943 4.74C.435.685 2.358.336 4.388.336" stroke="#A16B52" stroke-width="1.89"/><ellipse fill="#A16B52" cx=".945" cy="4.734" rx=".945" ry=".947"/></g><ellipse fill="#353332" cx="69.037" cy="46.712" rx="5.04" ry="5.05"/><ellipse fill="#353332" cx="69.037" cy="36.612" rx="7.56" ry="7.575"/><ellipse fill="#CF8766" transform="scale(-1 1) rotate(-22 0 401.149)" cx="66.751" cy="57.744" rx="7.56" ry="8.838"/><g transform="matrix(-1 0 0 1 72.187 53.025)"><path d="M.943 4.74C.435.685 2.358.336 4.388.336" stroke="#A16B52" stroke-width="1.89"/><ellipse fill="#A16B52" cx=".945" cy="4.734" rx=".945" ry=".947"/></g><ellipse fill="#FFF350" cx="67.148" cy="65.019" rx="1.89" ry="1.894"/><path d="M18.235 33.757s1.555 6.198-.778 7.718c-2.334 1.52-4.396 4.877-4.396 8.25 0 2.244.286 6.019-.446 7.78-.368.885-2.652 2.577-2.92 1.964-.21-.482 0-20.885 0-25.712 0-2.058 8.54 0 8.54 0zM59.775 33.74s-1.555 6.198.778 7.718c2.333 1.52 4.396 4.877 4.396 8.25 0 2.244-.286 6.019.446 7.78.368.885 2.652 2.577 2.92 1.964.21-.482 0-20.885 0-25.712 0-2.059-8.54 0-8.54 0z" fill="#353332"/><path d="M37.291 71.638s-2.433-.084-2.669 1.974c-.236 2.057 1 3.279 4.696 3.279 3.695 0 4.777-1.834 4.383-3.666-.393-1.832-2.318-1.558-2.711-1.587" stroke="#9B6248" stroke-width="1.89"/><g transform="translate(36.279 70.7)" fill="#9B6248"><ellipse cx="4.725" cy=".947" rx=".945" ry=".947"/><ellipse cx=".945" cy=".947" rx=".945" ry=".947"/></g><ellipse fill="#353332" cx="17.379" cy="31.563" rx="7.56" ry="7.575"/><ellipse fill="#353332" cx="60.218" cy="31.563" rx="7.56" ry="7.575"/><ellipse fill="#353332" cx="26.199" cy="27.775" rx="10.08" ry="10.1"/><ellipse fill="#353332" cx="43.838" cy="25.25" rx="13.859" ry="13.887"/><ellipse fill="#353332" cx="26.199" cy="17.675" rx="17.639" ry="17.675"/><ellipse fill="#353332" cx="41.319" cy="11.363" rx="11.34" ry="11.363"/><ellipse fill="#353332" cx="12.34" cy="26.512" rx="11.34" ry="11.363"/><ellipse fill="#353332" cx="55.178" cy="18.938" rx="11.34" ry="11.363"/><ellipse fill="#353332" cx="65.258" cy="25.25" rx="7.56" ry="7.575"/><ellipse fill="#353332" cx="66.518" cy="26.512" rx="8.82" ry="8.838"/><ellipse fill="#353332" cx="18.639" cy="35.35" rx="7.56" ry="7.575"/><ellipse fill="#353332" cx="8.56" cy="37.875" rx="6.3" ry="6.313"/></g><path d="M301 634.17a5.046 5.046 0 0 1 5.04-5.041h80.638a5.033 5.033 0 0 1 5.039 5.041v48.034H301V634.17z" fill="#F4F4F4"/><path d="M346.988 664.512c-3.131 0-5.67-2.546-5.67-5.686 0-3.141 2.539-5.687 5.67-5.687 3.132 0 5.67 2.546 5.67 5.687 0 3.14-2.538 5.686-5.67 5.686zm.63-12.438s.854-2.956 3.156-2.726c2.303.23 3.17 1.686 2.887 4.174-4.336-2.7-6.043-1.448-6.043-1.448z" fill="#DEDEDE"/><path fill="#EBEBEB" d="M301 678.237h90.717v3.788H301z"/><g transform="translate(37.799 522.837)"><path d="M4.217 123.87c0-18.843 18.8-34.119 41.99-34.119s41.99 15.276 41.99 34.12v34.12H4.217v-34.12z" fill="#EF8622"/><ellipse fill="#4278EC" cx="46.618" cy="27.835" rx="28.979" ry="27.801"/><path d="M17.64 55.639c0 16.052 12.974 29.065 28.978 29.065 16.005 0 28.98-13.013 28.98-29.065v-26.54H58.45a28.804 28.804 0 0 0-11.832-2.525c-4.214 0-8.219.902-11.831 2.525H17.639v26.54z" fill="#FDB5A3"/><rect fill="#628FEF" x="15.119" y="24.044" width="62.998" height="12.637" rx="2.52"/><rect fill="#8FB3FF" opacity=".496" x="18.899" y="26.512" width="5.04" height="7.582" rx="1.26"/><rect fill="#8FB3FF" opacity=".496" x="28.979" y="26.512" width="5.04" height="7.582" rx="1.26"/><rect fill="#8FB3FF" opacity=".496" x="39.059" y="26.512" width="5.04" height="7.582" rx="1.26"/><rect fill="#8FB3FF" opacity=".496" x="49.138" y="26.512" width="5.04" height="7.582" rx="1.26"/><rect fill="#8FB3FF" opacity=".496" x="59.218" y="26.512" width="5.04" height="7.582" rx="1.26"/><rect fill="#8FB3FF" opacity=".496" x="69.297" y="26.512" width="5.04" height="7.582" rx="1.26"/><ellipse fill="#353232" cx="35.909" cy="49.869" rx="3.15" ry="3.156"/><ellipse fill="#353332" cx="57.328" cy="49.869" rx="3.15" ry="3.156"/><path fill="#F19881" d="M36.539 84.083h18.899V96.72H36.539z"/><path fill="#FEA328" d="M45.989 96.898l-9.45 3.79v-12.2zM45.988 96.849l9.58 3.835-.223-12.195z"/><rect fill="#F9A08A" x="26.459" y="56.813" width="13.859" height="6.313" rx="2.52"/><rect fill="#F9A08A" x="52.918" y="56.813" width="13.859" height="6.313" rx="2.52"/><g transform="translate(10.08 37.612)"><path d="M4.37 17.343a3.153 3.153 0 0 0 3.603 2.137 3.153 3.153 0 0 0 2.49-3.693l.015-.004L8.28 3.861l-.13.032C7.93 2.975 6.922.52 3.74 1.01 1.679 1.328.355 3.396.754 5.45c.044.224.106.44.186.645L4.346 17.35l.024-.006z" fill="#FDB5A3"/><path d="M5.368 11.624S3.77 6.564 3.533 5.371a1.48 1.48 0 0 1 .155-.974c.421-.786 1.57-1.117 2.856.27" stroke="#ED947E" stroke-width="1.26"/><ellipse fill="#ED947E" cx="5.367" cy="11.625" rx=".63" ry=".631"/><ellipse fill="#ED947E" cx="6.552" cy="4.681" rx=".63" ry=".631"/></g><g transform="matrix(-1 0 0 1 83.157 37.612)"><path d="M4.37 17.343a3.153 3.153 0 0 0 3.603 2.137 3.153 3.153 0 0 0 2.49-3.693l.015-.004L8.28 3.861l-.13.032C7.93 2.975 6.922.52 3.74 1.01 1.679 1.328.355 3.396.754 5.45c.044.224.106.44.186.645L4.346 17.35l.024-.006z" fill="#FDB5A3"/><path d="M5.368 11.624S3.77 6.564 3.533 5.371a1.48 1.48 0 0 1 .155-.974c.421-.786 1.57-1.117 2.856.27" stroke="#ED947E" stroke-width="1.26"/><ellipse fill="#ED947E" cx="5.367" cy="11.625" rx=".63" ry=".631"/><ellipse fill="#ED947E" cx="6.552" cy="4.681" rx=".63" ry=".631"/></g><path d="M17.64 36.612h12.015s.25.631-.561 1.036c-.909.452-2.93.713-3.814 1.303-1.673 1.118-1.772 4.014-1.772 4.014-.205 1.372-1.497 2.485-2.895 2.485h-.45a2.516 2.516 0 0 1-2.524-2.52v-6.318zM75.806 36.612H63.79s-.25.631.561 1.036c.908.452 2.93.713 3.814 1.303 1.673 1.118 1.772 4.014 1.772 4.014.205 1.372 1.497 2.485 2.895 2.485h.45a2.516 2.516 0 0 0 2.524-2.52v-6.318zM28.593 45.748s3.966-3.095 8.464-2.393c4.497.702 4.75-2.417 3.893-2.417-.857 0-2.735.54-6.247.191-3.511-.347-7.014 2.898-7.402 4.015-.388 1.116 1.292.604 1.292.604zM64.405 45.841s-3.966-3.094-8.463-2.393c-4.498.702-4.751-2.417-3.894-2.417.858 0 2.735.54 6.247.192 3.511-.348 7.015 2.897 7.403 4.014.388 1.116-1.293.604-1.293.604z" fill="#353332"/><rect fill="#353332" x="34.019" y="64.388" width="25.199" height="23.988" rx="7.56"/><rect fill="#FDB5A3" x="37.799" y="68.175" width="17.639" height="7.575" rx="2.52"/><path d="M43.762 59.002s2.94 2.899 4.879.43c1.938-2.468-1.055-3.679-1.055-6.723v-3.835" stroke="#E98F79" stroke-width="1.89"/><ellipse fill="#E88F79" cx="47.563" cy="48.922" rx=".945" ry=".947"/><ellipse fill="#E88F79" cx="43.783" cy="59.022" rx=".945" ry=".947"/><path d="M0 112.483a5.046 5.046 0 0 1 5.04-5.041h80.638a5.033 5.033 0 0 1 5.039 5.04v48.034H0v-48.033z" fill="#F4F4F4"/><path d="M45.988 142.825c-3.131 0-5.67-2.546-5.67-5.687 0-3.14 2.539-5.686 5.67-5.686 3.132 0 5.67 2.546 5.67 5.686s-2.538 5.687-5.67 5.687zm.63-12.438s.854-2.956 3.156-2.727c2.303.23 3.17 1.687 2.887 4.175-4.336-2.7-6.043-1.448-6.043-1.448z" fill="#DEDEDE"/><path fill="#EBEBEB" d="M0 156.55h90.717v3.787H0z"/></g></g><path d="M151 304.4c0 1.02.78 1.8 1.8 1.8s1.83-.78 1.83-1.8v-12.57l5.1 7.65c.39.6.87.96 1.53.96.69 0 1.17-.36 1.56-.96l5.13-7.71v12.6c0 .99.84 1.83 1.83 1.83 1.05 0 1.86-.81 1.86-1.83v-17.58c0-1.02-.81-1.86-1.86-1.86h-.39c-.75 0-1.29.33-1.68.96l-6.39 9.99-6.36-9.96c-.36-.57-.9-.99-1.71-.99h-.39c-1.05 0-1.86.84-1.86 1.86v17.61zm30.18 1.98c-2.97 0-5.61-1.71-5.61-4.89v-.06c0-3.42 2.67-5.1 6.54-5.1 1.77 0 3.03.27 4.26.66v-.39c0-2.25-1.38-3.45-3.93-3.45-1.38 0-2.52.24-3.51.63-.21.06-.39.09-.57.09-.84 0-1.53-.66-1.53-1.5 0-.66.45-1.23.99-1.44 1.5-.57 3.03-.93 5.1-.93 2.37 0 4.14.63 5.25 1.77 1.17 1.14 1.71 2.82 1.71 4.89v7.8c0 .99-.78 1.74-1.77 1.74-1.05 0-1.77-.72-1.77-1.53v-.6c-1.08 1.29-2.73 2.31-5.16 2.31zm1.02-2.64c2.4 0 4.23-1.38 4.23-3.39v-1.08c-.93-.36-2.16-.63-3.6-.63-2.34 0-3.72.99-3.72 2.64v.06c0 1.53 1.35 2.4 3.09 2.4zm27.6-17.94v18.6c0 1.02-.81 1.8-1.8 1.8-1.02 0-1.83-.78-1.83-1.8v-.99c-1.17 1.65-2.82 2.97-5.4 2.97-3.72 0-7.35-2.97-7.35-8.22v-.06c0-5.25 3.57-8.22 7.35-8.22 2.61 0 4.26 1.29 5.4 2.79v-6.87c0-1.02.81-1.8 1.8-1.8 1.02 0 1.83.78 1.83 1.8zm-8.16 7.23c-2.49 0-4.56 1.92-4.56 5.07v.06c0 3.06 2.1 5.07 4.56 5.07 2.43 0 4.59-2.04 4.59-5.07v-.06c0-3.06-2.16-5.07-4.59-5.07zm15.45 3.99h8.13c-.24-2.34-1.62-4.17-4.02-4.17-2.22 0-3.78 1.71-4.11 4.17zm10.23 7.29c-1.44 1.29-3.24 2.1-5.7 2.1-4.59 0-8.13-3.33-8.13-8.22v-.06c0-4.53 3.21-8.25 7.74-8.25 5.04 0 7.53 4.14 7.53 7.8 0 1.02-.78 1.74-1.71 1.74h-9.93c.39 2.58 2.22 4.02 4.56 4.02 1.53 0 2.73-.54 3.75-1.38.27-.21.51-.33.93-.33.81 0 1.44.63 1.44 1.47 0 .45-.21.84-.48 1.11zm19.47 2.01h.12c.87 0 1.62-.51 1.95-1.56l3.12-9.42 3.09 9.42c.33 1.05 1.08 1.56 1.98 1.56h.12c.87 0 1.62-.51 2.01-1.62l4.32-12.18c.06-.18.15-.54.15-.81 0-.9-.72-1.68-1.71-1.68-.96 0-1.53.63-1.77 1.41l-3.09 9.63-3.12-9.6c-.27-.84-.93-1.44-1.86-1.44h-.21c-.93 0-1.59.6-1.86 1.44l-3.09 9.6-3.06-9.6c-.27-.84-.87-1.44-1.77-1.44-1.08 0-1.77.81-1.77 1.68 0 .3.09.69.18.93l4.26 12.06c.36 1.11 1.11 1.62 2.01 1.62zm20.22-20.19c0 1.08.9 1.8 2.07 1.8s2.07-.72 2.07-1.8v-.18c0-1.08-.9-1.77-2.07-1.77s-2.07.69-2.07 1.77v.18zm.27 18.27c0 1.02.81 1.8 1.8 1.8 1.02 0 1.83-.78 1.83-1.8v-12.54c0-1.02-.81-1.83-1.83-1.83s-1.8.81-1.8 1.83v12.54zm13.68 1.92c.96 0 1.71-.15 2.49-.42.51-.21.96-.75.96-1.41 0-.84-.72-1.5-1.53-1.5-.12 0-.48.09-.9.09-1.23 0-1.95-.57-1.95-1.98v-7.77h2.85c.87 0 1.59-.69 1.59-1.56 0-.87-.72-1.56-1.59-1.56h-2.85v-2.7c0-.99-.81-1.8-1.8-1.8-1.02 0-1.83.81-1.83 1.8v2.7h-.6c-.87 0-1.56.69-1.56 1.56 0 .87.69 1.56 1.56 1.56h.6v8.34c0 3.48 1.89 4.65 4.56 4.65zm7.02-1.92c0 1.02.81 1.8 1.8 1.8 1.02 0 1.83-.78 1.83-1.8v-7.29c0-2.46 1.47-3.93 3.57-3.93 2.16 0 3.39 1.41 3.39 3.87v7.35c0 1.02.81 1.8 1.83 1.8s1.8-.78 1.8-1.8v-8.46c0-3.66-2.07-6.06-5.64-6.06-2.46 0-3.93 1.29-4.95 2.76v-6.84c0-.99-.81-1.8-1.83-1.8s-1.8.81-1.8 1.8v18.6zm28.02-.21c0 1.05.81 1.86 1.86 1.86h11.34c.93 0 1.68-.75 1.68-1.68 0-.93-.75-1.68-1.68-1.68h-9.51v-15.96c0-1.02-.81-1.83-1.83-1.83-1.05 0-1.86.81-1.86 1.83v17.46zm25.68 2.22c-4.83 0-8.4-3.69-8.4-8.19v-.06c0-4.53 3.6-8.28 8.46-8.28 4.86 0 8.43 3.69 8.43 8.22v.06c0 4.5-3.6 8.25-8.49 8.25zm.06-3.18c2.94 0 4.8-2.28 4.8-5.01v-.06c0-2.79-2.01-5.1-4.86-5.1-2.91 0-4.77 2.28-4.77 5.04v.06c0 2.76 2.01 5.07 4.83 5.07zm20.79 1.53l5.28-12.12c.09-.18.21-.54.21-.87 0-.99-.78-1.74-1.77-1.74-.96 0-1.44.63-1.71 1.26l-4.14 10.56-4.08-10.5c-.3-.75-.81-1.32-1.8-1.32s-1.8.84-1.8 1.74c0 .33.12.63.21.9l5.28 12.09c.42.96 1.08 1.59 2.07 1.59h.18c.99 0 1.65-.66 2.07-1.59zm11.64-7.74h8.13c-.24-2.34-1.62-4.17-4.02-4.17-2.22 0-3.78 1.71-4.11 4.17zm10.23 7.29c-1.44 1.29-3.24 2.1-5.7 2.1-4.59 0-8.13-3.33-8.13-8.22v-.06c0-4.53 3.21-8.25 7.74-8.25 5.04 0 7.53 4.14 7.53 7.8 0 1.02-.78 1.74-1.71 1.74h-9.93c.39 2.58 2.22 4.02 4.56 4.02 1.53 0 2.73-.54 3.75-1.38.27-.21.51-.33.93-.33.81 0 1.44.63 1.44 1.47 0 .45-.21.84-.48 1.11zM201 323.95c0 1.08.9 1.8 2.07 1.8s2.07-.72 2.07-1.8v-.18c0-1.08-.9-1.77-2.07-1.77s-2.07.69-2.07 1.77v.18zm.27 18.27c0 1.02.81 1.8 1.8 1.8 1.02 0 1.83-.78 1.83-1.8v-12.54c0-1.02-.81-1.83-1.83-1.83s-1.8.81-1.8 1.83v12.54zm8.37 0c0 1.02.81 1.8 1.8 1.8 1.02 0 1.83-.78 1.83-1.8v-7.29c0-2.46 1.47-3.93 3.57-3.93 2.16 0 3.39 1.41 3.39 3.87v7.35c0 1.02.81 1.8 1.83 1.8s1.8-.78 1.8-1.8v-8.46c0-3.66-2.07-6.06-5.64-6.06-2.46 0-3.93 1.29-4.95 2.76v-.78c0-1.02-.81-1.83-1.83-1.83s-1.8.81-1.8 1.83v12.54zm36.21 1.95h.21c1.05 0 1.74-.57 2.13-1.5l7.38-17.4c.09-.21.18-.51.18-.78 0-.99-.81-1.77-1.83-1.77-.87 0-1.53.57-1.77 1.2L246 339.19l-6.06-15.15c-.3-.78-.93-1.32-1.89-1.32-1.05 0-1.86.81-1.86 1.8 0 .33.09.6.21.87l7.35 17.28c.39.93 1.08 1.5 2.1 1.5zm13.32-20.22c0 1.08.9 1.8 2.07 1.8s2.07-.72 2.07-1.8v-.18c0-1.08-.9-1.77-2.07-1.77s-2.07.69-2.07 1.77v.18zm.27 18.27c0 1.02.81 1.8 1.8 1.8 1.02 0 1.83-.78 1.83-1.8v-12.54c0-1.02-.81-1.83-1.83-1.83s-1.8.81-1.8 1.83v12.54zm11.1-7.38h8.13c-.24-2.34-1.62-4.17-4.02-4.17-2.22 0-3.78 1.71-4.11 4.17zm10.23 7.29c-1.44 1.29-3.24 2.1-5.7 2.1-4.59 0-8.13-3.33-8.13-8.22v-.06c0-4.53 3.21-8.25 7.74-8.25 5.04 0 7.53 4.14 7.53 7.8 0 1.02-.78 1.74-1.71 1.74h-9.93c.39 2.58 2.22 4.02 4.56 4.02 1.53 0 2.73-.54 3.75-1.38.27-.21.51-.33.93-.33.81 0 1.44.63 1.44 1.47 0 .45-.21.84-.48 1.11zm5.16.09c0 1.02.81 1.8 1.8 1.8 1.02 0 1.83-.78 1.83-1.8v-7.29c0-2.46 1.47-3.93 3.57-3.93 2.16 0 3.39 1.41 3.39 3.87v7.35c0 1.02.81 1.8 1.83 1.8s1.8-.78 1.8-1.8v-8.46c0-3.66-2.07-6.06-5.64-6.06-2.46 0-3.93 1.29-4.95 2.76v-.78c0-1.02-.81-1.83-1.83-1.83s-1.8.81-1.8 1.83v12.54zm18.6 0c0 1.02.81 1.8 1.8 1.8 1.02 0 1.83-.78 1.83-1.8v-7.29c0-2.46 1.47-3.93 3.57-3.93 2.16 0 3.39 1.41 3.39 3.87v7.35c0 1.02.81 1.8 1.83 1.8s1.8-.78 1.8-1.8v-8.46c0-3.66-2.07-6.06-5.64-6.06-2.46 0-3.93 1.29-4.95 2.76v-.78c0-1.02-.81-1.83-1.83-1.83s-1.8.81-1.8 1.83v12.54zm23.16 1.98c-2.97 0-5.61-1.71-5.61-4.89v-.06c0-3.42 2.67-5.1 6.54-5.1 1.77 0 3.03.27 4.26.66v-.39c0-2.25-1.38-3.45-3.93-3.45-1.38 0-2.52.24-3.51.63-.21.06-.39.09-.57.09-.84 0-1.53-.66-1.53-1.5 0-.66.45-1.23.99-1.44 1.5-.57 3.03-.93 5.1-.93 2.37 0 4.14.63 5.25 1.77 1.17 1.14 1.71 2.82 1.71 4.89v7.8c0 .99-.78 1.74-1.77 1.74-1.05 0-1.77-.72-1.77-1.53v-.6c-1.08 1.29-2.73 2.31-5.16 2.31zm1.02-2.64c2.4 0 4.23-1.38 4.23-3.39v-1.08c-.93-.36-2.16-.63-3.6-.63-2.34 0-3.72.99-3.72 2.64v.06c0 1.53 1.35 2.4 3.09 2.4z" fill="#FFF"/><path d="M259.06 370.534C222.14 338.189 198 316.392 198 289.673 198 267.875 215.04 251 237.05 251c12.07 0 24.14 5.625 31.95 14.766 7.81-9.14 19.88-14.766 31.95-14.766 22.01 0 39.05 16.875 39.05 38.673 0 26.719-24.14 48.516-61.06 80.86l-9.94 9.845-9.94-9.844z" fill="#FFF" opacity=".193"/></g></svg>